<?xml version="1.0" encoding="UTF-8"?>
<svg id="Layer_1" data-name="Layer 1" xmlns="http://www.w3.org/2000/svg" viewBox="0 0 30.942 23.559">
  <defs>
    <style>
      .cls-1 {
        fill:rgb(32, 12, 19);
        stroke-width: 0px;
      }
    </style>
  </defs>
  <path class="cls-1" d="M0,2.279c.156-.366.261-.767.482-1.088.216-.314.549-.548.834-.813.154-.143.289-.098.45.022,2.465,1.847,4.935,3.687,7.404,5.529,1.872,1.397,3.743,2.794,5.615,4.19.51.38.861.381,1.367.004C20.469,6.903,24.787,3.684,29.097.455c.235-.176.399-.185.629-.02.763.547,1.177,1.279,1.21,2.218.012.342.002.684.002.961-5.172,3.861-10.306,7.695-15.464,11.545-.102-.074-.207-.147-.309-.224C10.295,11.298,5.424,7.659.55,4.024.385,3.901.184,3.826,0,3.729v-1.45Z"/>
  <path class="cls-1" d="M0,5.905c.165.112.334.218.494.337.977.727,1.955,1.453,2.923,2.191.101.077.2.235.2.355.01,4.853.008,9.706.008,14.56,0,.058-.006.116-.009.177-1.242.123-2.369-.044-3.115-1.152-.235-.348-.338-.785-.501-1.181V5.904h0Z"/>
  <path class="cls-1" d="M25.476,23.535H5.461v-13.582c.465.346.906.672,1.346,1,2.661,1.987,5.322,3.975,7.983,5.963.515.385.843.387,1.363,0,3.017-2.251,6.033-4.504,9.049-6.756.08-.06.162-.118.274-.199v13.575Z"/>
  <path class="cls-1" d="M4.279,0h22.323c.021.021.043.042.064.062-.059.029-.124.05-.175.088-3.607,2.689-7.213,5.378-10.817,8.071-.14.105-.235.131-.391.014C11.681,5.54,8.075,2.851,4.469.16c-.053-.04-.102-.085-.19-.16Z"/>
  <path class="cls-1" d="M27.314,23.55v-.328c0-4.782,0-9.565-.005-14.347,0-.214.061-.343.235-.471,1.047-.768,2.083-1.549,3.124-2.326.071-.053.145-.103.251-.177.008.113.02.196.02.28,0,4.853.003,9.706,0,14.559,0,1.641-1.178,2.805-2.824,2.811h-.801Z"/>
</svg>