<?xml version="1.0" encoding="UTF-8"?>
<svg id="Layer_1" data-name="Layer 1" xmlns="http://www.w3.org/2000/svg" viewBox="0 0 30.356 30.357">
  <defs>
    <style>
      .cls-1 {
        fill:rgb(32, 12, 19);
        stroke-width: 0px;
      }
    </style>
  </defs>
  <path class="cls-1" d="M30.356,10.731v13.34c-.039.192-.084.383-.117.576-.547,3.211-3.466,5.699-6.728,5.704-5.552.01-11.104.004-16.655,0-.315,0-.633-.022-.944-.071C2.498,29.745.005,26.827.002,23.363c-.004-4.09,0-8.18,0-12.269,0-.105,0-.21,0-.323h8.355c-1.104,1.754-1.545,3.623-1.255,5.648.292,2.041,1.243,3.722,2.798,5.064,2.609,2.252,6.483,2.568,9.467.743,1.954-1.195,3.205-2.924,3.716-5.163.511-2.242.088-4.333-1.141-6.312h.386c2.559,0,5.117,0,7.676,0,.118,0,.236-.012.353-.019Z"/>
  <path class="cls-1" d="M30.356,6.285v3.202c-.127-.009-.254-.025-.382-.025-2.914-.001-5.828-.004-8.742.005-.267,0-.458-.077-.655-.256-3.102-2.8-7.845-2.77-10.925.051-.122.112-.326.19-.493.19-2.944.011-5.887.008-8.831.008-.104,0-.209-.009-.328-.014,0-.832,0-1.632,0-2.431.001-1.93.689-3.582,2.034-4.957.297-.304.643-.56.966-.838.024.017.049.035.073.052v5.826h1.302c0-.14,0-.257,0-.374,0-1.986-.002-3.971.007-5.957,0-.11.073-.286.156-.317.364-.138.744-.235,1.158-.359v7.01h1.287V.099h-.822C6.224.049,6.254.024,6.284,0c5.929,0,11.858,0,17.787,0,.065.019.129.049.196.057,2.766.333,5.103,2.36,5.843,5.078.103.378.165.766.246,1.15ZM26.73,3.705h-3.414v3.391h3.414v-3.391Z"/>
  <path class="cls-1" d="M20.994,15.27c-.002,3.217-2.601,5.823-5.811,5.826-3.221.003-5.829-2.618-5.819-5.847.01-3.217,2.616-5.816,5.825-5.811,3.209.006,5.807,2.615,5.805,5.831ZM15.177,10.78c-2.49,0-4.507,2.015-4.502,4.496.006,2.471,2.014,4.475,4.49,4.479,2.496.004,4.512-1.996,4.516-4.481.004-2.484-2.01-4.494-4.504-4.494Z"/>
</svg>