<?xml version="1.0" encoding="UTF-8"?>
<svg id="Layer_1" data-name="Layer 1" xmlns="http://www.w3.org/2000/svg" viewBox="0 0 29.8 29.793">
  <defs>
    <style>
      .cls-1 {
        fill:rgb(32, 12, 19);
        stroke-width: 0px;
      }
    </style>
  </defs>
  <path class="cls-1" d="M0,26.302C0,18.698,0,11.094,0,3.491c.018-.032.046-.063.053-.097C.458,1.327,2.06,0,4.155,0c7.197,0,14.395-.001,21.592,0,2.246,0,4.051,1.801,4.052,4.042.002,7.234.002,14.469,0,21.703,0,1.738-1.093,3.262-2.741,3.825-.264.09-.538.148-.807.221H3.55c-.054-.019-.107-.045-.162-.056-1.66-.328-2.731-1.312-3.245-2.915C.088,26.651.047,26.475,0,26.302ZM15.907,13.217c-.025-.06-.038-.077-.038-.095-.003-.242-.001-.485-.008-.727-.013-.457-.209-.65-.665-.651-.853-.002-1.707-.002-2.56,0-.5,0-.704.203-.704.705-.001,3.684-.001,7.368,0,11.052,0,.487.223.705.717.707.805.002,1.61,0,2.415,0,.603,0,.785-.178.785-.773,0-1.881-.007-3.762.004-5.642.004-.717.161-1.405.568-2.011.449-.667,1.093-.921,1.882-.848.814.075,1.38.506,1.582,1.28.157.6.225,1.238.235,1.86.029,1.812.008,3.626.009,5.439,0,.481.207.686.693.688.873.003,1.745.003,2.618,0,.494-.002.713-.219.713-.711-.002-2.036.003-4.072-.015-6.108-.008-.93-.078-1.858-.335-2.76-.444-1.558-1.376-2.629-3.018-2.954-.932-.185-1.868-.166-2.794.073-.789.204-1.426.634-1.923,1.276-.046.059-.094.117-.161.201ZM10.147,17.988c0-1.832.001-3.664,0-5.496,0-.549-.206-.75-.757-.752-.805-.002-1.609-.003-2.414,0-.521.002-.748.227-.748.741-.001,3.654-.001,7.309,0,10.963,0,.521.241.761.766.763.776.002,1.551.001,2.327,0,.628,0,.828-.202.828-.84,0-1.793,0-3.587,0-5.38ZM10.718,8.143c.009-1.403-1.113-2.547-2.508-2.558-1.385-.01-2.542,1.13-2.558,2.52-.016,1.373,1.123,2.538,2.491,2.548,1.435.01,2.566-1.092,2.575-2.511Z"/>
</svg>