<?xml version="1.0" encoding="UTF-8"?>
<svg id="Layer_1" data-name="Layer 1" xmlns="http://www.w3.org/2000/svg" viewBox="0 0 279.27 255.03">
  <defs>
    <style>
      .cls-1 {
        fill: #f4b1a2;
      }

      .cls-1, .cls-2 {
        stroke-width: 0px;
      }

      .cls-2 {
        fill: #721a1b;
      }
    </style>
  </defs>
  <path class="cls-1" d="M159.42,255.03c-7.03,0-14.36-.22-22-.66-7.64-.44-15.28-1.05-22.92-1.84-7.64-.79-15.1-1.71-22.39-2.77-7.29-1.05-14.09-2.28-20.41-3.69v-.79c6.15-2.28,10.54-5.84,13.17-10.67,2.63-4.83,3.95-10.49,3.95-16.99V88.55c0-6.49-1.41-12.29-4.21-17.38-2.81-5.09-7.11-8.69-12.91-10.8v-.79c13.87-2.81,27.35-5,40.43-6.59,13.08-1.58,27.26-2.37,42.54-2.37,17.03,0,33.06,2.2,48.07,6.59,15.02,4.39,28.27,10.89,39.78,19.49,11.5,8.61,20.5,19.14,27,31.61,6.49,12.47,9.75,26.87,9.75,43.2s-3.12,30.91-9.35,43.73c-6.23,12.82-14.84,23.67-25.81,32.53-10.98,8.87-23.71,15.63-38.19,20.28-14.49,4.65-29.99,6.98-46.49,6.98ZM167.06,246.6c11.59,0,21.9-3.38,30.95-10.14,9.04-6.76,16.11-16.59,21.2-29.5,5.09-12.91,7.64-28.67,7.64-47.28,0-13.17-1.01-25.06-3.03-35.69-2.02-10.62-4.92-19.97-8.69-28.05-3.78-8.08-8.3-14.84-13.57-20.28-5.27-5.44-11.15-9.52-17.65-12.25-6.5-2.72-13.52-4.08-21.07-4.08-9.13,0-15.85,2.63-20.15,7.9-4.31,5.27-6.45,12.29-6.45,21.07v126.44c0,6.15,1.14,11.64,3.42,16.46,2.28,4.83,5.71,8.61,10.27,11.33,4.56,2.72,10.27,4.08,17.12,4.08Z"/>
  <path class="cls-2" d="M187.47,151.71c0,11.15-2.55,21.2-7.64,30.14-5.1,8.94-12.02,16.63-20.77,23.07-8.75,6.44-18.75,11.39-30,14.85s-23.03,5.19-35.33,5.19c-11.15,0-22.21-.77-33.17-2.31-10.96-1.54-21.59-3.75-31.87-6.63-10.29-2.88-19.85-6.44-28.7-10.67l23.36-59.41h1.15c3.84,13.46,9.23,25.33,16.15,35.62,6.92,10.29,15.43,18.36,25.52,24.23,10.09,5.87,21.87,8.8,35.33,8.8,10.19,0,18.94-1.49,26.25-4.47,7.3-2.98,12.88-7.07,16.73-12.26,3.84-5.19,5.77-11.15,5.77-17.88,0-9.42-3.03-17.06-9.08-22.93-6.06-5.86-13.8-10.77-23.22-14.71-9.42-3.94-19.42-7.45-29.99-10.53-8.65-2.5-17.07-5.43-25.24-8.8-8.17-3.36-15.57-7.45-22.21-12.26-6.63-4.8-11.92-10.62-15.86-17.45-3.94-6.82-5.91-14.95-5.91-24.37,0-10.19,2.26-19.51,6.78-27.98,4.52-8.46,10.72-15.76,18.6-21.92,7.88-6.15,16.77-10.86,26.68-14.13,9.9-3.27,20.23-4.9,31-4.9,15,0,28.45,1.15,40.38,3.46,11.92,2.31,22.69,5.1,32.3,8.36l-20.19,51.34h-1.15c-3.85-10.57-8.56-19.8-14.13-27.69-5.58-7.88-12.07-13.99-19.47-18.31-7.4-4.33-15.82-6.49-25.24-6.49-7.31,0-13.89,1.11-19.76,3.32-5.87,2.21-10.43,5.43-13.7,9.66-3.27,4.23-4.9,9.52-4.9,15.86,0,6.92,1.83,12.88,5.48,17.88,3.65,5,8.51,9.28,14.56,12.83,6.06,3.56,12.93,6.68,20.62,9.37,7.69,2.69,15.57,5.19,23.65,7.5,8.27,2.5,16.39,5.43,24.37,8.8,7.98,3.37,15.19,7.5,21.63,12.4,6.44,4.9,11.58,10.92,15.43,18.03,3.84,7.12,5.77,15.57,5.77,25.38Z"/>
  <path class="cls-1" d="M88.66,230.55c0-2.76.7-66.51.7-66.51h46.94v64.89l-47.64,1.62Z"/>
  <polygon class="cls-1" points="88.21 225 88.83 220.07 89.89 226.01 88.21 225"/>
</svg>