<?xml version="1.0" encoding="UTF-8"?>
<svg id="Layer_1" data-name="Layer 1" xmlns="http://www.w3.org/2000/svg" viewBox="0 0 30.905 21.686">
  <defs>
    <style>
      .cls-1 {
        fill:rgb(32, 12, 19);
        stroke-width: 0px;
      }
    </style>
  </defs>
  <path class="cls-1" d="M15.393,0c3.172.124,6.344.237,9.514.38.747.034,1.497.133,2.233.268,1.784.327,2.925,1.528,3.262,3.398.467,2.588.561,5.205.474,7.822-.06,1.83-.238,3.657-.413,5.481-.13,1.348-.671,2.495-1.861,3.259-.72.462-1.531.593-2.355.68-3.194.337-6.401.413-9.608.396-3.216-.016-6.433-.113-9.648-.217-1.047-.034-2.095-.166-3.133-.32-1.752-.26-2.997-1.457-3.301-3.267-.232-1.381-.36-2.784-.459-4.183-.16-2.261-.115-4.526.069-6.784.086-1.055.205-2.117.422-3.151C.98,1.909,2.276.795,4.147.561,7.154.184,10.179.151,13.202.1c.729-.012,1.459-.002,2.188-.002,0-.033.002-.066.003-.098ZM12.397,15.513c2.682-1.545,5.331-3.071,8.024-4.622-2.696-1.553-5.346-3.079-8.024-4.622v9.244Z"/>
</svg>